<svg width="230" height="85" viewBox="0 0 230 85" fill="none" xmlns="http://www.w3.org/2000/svg">
<g clip-path="url(#clip0_4_4)">
<rect width="230" height="85" fill="white"/>
<g clip-path="url(#clip1_4_4)">
<mask id="mask0_4_4" style="mask-type:luminance" maskUnits="userSpaceOnUse" x="65" y="1" width="85" height="85">
<path d="M149.853 43.4403L107.44 1L65 43.4125L107.412 85.8528L149.853 43.4403Z" fill="white"/>
</mask>
<g mask="url(#mask0_4_4)">
<path fill-rule="evenodd" clip-rule="evenodd" d="M123.978 26.8855C126.556 24.3089 126.558 20.1301 123.981 17.5517L112.106 5.66844C109.529 3.09013 105.35 3.08875 102.772 5.66537L90.736 17.6934C88.1576 20.27 88.1564 24.4488 90.733 27.0271L102.608 38.9104C105.185 41.4888 105.184 45.6677 102.605 48.2442L90.8747 59.9673C88.2964 62.5438 88.295 66.7228 90.8716 69.3011L102.747 81.1844C105.324 83.7626 109.503 83.764 112.081 81.1874L124.117 69.1593C126.695 66.5827 126.697 62.4038 124.12 59.8256L112.244 47.9423C109.668 45.364 109.669 41.1851 112.248 38.6085L123.978 26.8855Z" fill="url(#paint0_linear_4_4)"/>
</g>
</g>
<path opacity="0.9" d="M19.64 60.48C17.592 60.48 15.752 60.144 14.12 59.472C12.488 58.768 11.096 57.808 9.944 56.592C8.792 55.344 7.896 53.936 7.256 52.368C6.648 50.8 6.344 49.152 6.344 47.424C6.344 45.056 6.872 42.896 7.928 40.944C9.016 38.96 10.552 37.376 12.536 36.192C14.52 35.008 16.872 34.416 19.592 34.416C22.312 34.416 24.648 35.008 26.6 36.192C28.552 37.376 30.008 38.928 30.968 40.848L24.68 42.768C24.136 41.84 23.416 41.136 22.52 40.656C21.624 40.144 20.632 39.888 19.544 39.888C18.328 39.888 17.208 40.208 16.184 40.848C15.192 41.456 14.408 42.336 13.832 43.488C13.256 44.608 12.968 45.92 12.968 47.424C12.968 48.896 13.256 50.208 13.832 51.36C14.44 52.48 15.24 53.376 16.232 54.048C17.224 54.688 18.328 55.008 19.544 55.008C20.312 55.008 21.032 54.88 21.704 54.624C22.408 54.368 23.032 54.016 23.576 53.568C24.12 53.12 24.52 52.608 24.776 52.032L31.064 53.952C30.488 55.2 29.64 56.32 28.52 57.312C27.432 58.304 26.136 59.088 24.632 59.664C23.16 60.208 21.496 60.48 19.64 60.48ZM33.2938 52.56C33.2938 50.928 33.7418 49.504 34.6378 48.288C35.5658 47.04 36.8458 46.08 38.4778 45.408C40.1098 44.736 41.9818 44.4 44.0938 44.4C45.1498 44.4 46.2218 44.48 47.3098 44.64C48.3978 44.8 49.3418 45.056 50.1418 45.408V44.064C50.1418 42.464 49.6618 41.232 48.7018 40.368C47.7738 39.504 46.3818 39.072 44.5258 39.072C43.1498 39.072 41.8378 39.312 40.5898 39.792C39.3418 40.272 38.0298 40.976 36.6538 41.904L34.5898 37.68C36.2538 36.592 37.9498 35.776 39.6778 35.232C41.4378 34.688 43.2778 34.416 45.1978 34.416C48.7818 34.416 51.5658 35.312 53.5498 37.104C55.5658 38.896 56.5738 41.456 56.5738 44.784V52.8C56.5738 53.472 56.6858 53.952 56.9098 54.24C57.1658 54.528 57.5658 54.704 58.1098 54.768V60C57.5338 60.096 57.0058 60.176 56.5258 60.24C56.0778 60.304 55.6938 60.336 55.3738 60.336C54.0938 60.336 53.1178 60.048 52.4458 59.472C51.8058 58.896 51.4058 58.192 51.2458 57.36L51.1018 56.064C50.0138 57.472 48.6538 58.56 47.0218 59.328C45.3898 60.096 43.7258 60.48 42.0298 60.48C40.3658 60.48 38.8618 60.144 37.5178 59.472C36.2058 58.768 35.1658 57.824 34.3978 56.64C33.6618 55.424 33.2938 54.064 33.2938 52.56ZM48.9418 53.856C49.2938 53.472 49.5818 53.088 49.8058 52.704C50.0298 52.32 50.1418 51.968 50.1418 51.648V49.104C49.3738 48.784 48.5418 48.544 47.6458 48.384C46.7498 48.192 45.9018 48.096 45.1018 48.096C43.4378 48.096 42.0618 48.464 40.9738 49.2C39.9178 49.904 39.3898 50.848 39.3898 52.032C39.3898 52.672 39.5658 53.28 39.9178 53.856C40.2698 54.432 40.7818 54.896 41.4538 55.248C42.1258 55.6 42.9258 55.776 43.8538 55.776C44.8138 55.776 45.7578 55.6 46.6858 55.248C47.6138 54.864 48.3658 54.4 48.9418 53.856ZM62.5843 60V34.848H69.0163V60H62.5843ZM62.5843 31.344V24.96H69.0163V31.344H62.5843ZM86.4346 60.48C84.3866 60.48 82.5466 60.144 80.9146 59.472C79.2826 58.768 77.8906 57.808 76.7386 56.592C75.6186 55.376 74.7546 53.984 74.1466 52.416C73.5386 50.848 73.2346 49.2 73.2346 47.472C73.2346 45.712 73.5386 44.048 74.1466 42.48C74.7546 40.912 75.6186 39.52 76.7386 38.304C77.8906 37.088 79.2826 36.144 80.9146 35.472C82.5466 34.768 84.3866 34.416 86.4346 34.416C88.4826 34.416 90.3066 34.768 91.9066 35.472C93.5386 36.144 94.9306 37.088 96.0826 38.304C97.2346 39.52 98.0986 40.912 98.6746 42.48C99.2826 44.048 99.5866 45.712 99.5866 47.472C99.5866 49.2 99.2826 50.848 98.6746 52.416C98.0986 53.984 97.2346 55.376 96.0826 56.592C94.9626 57.808 93.5866 58.768 91.9546 59.472C90.3226 60.144 88.4826 60.48 86.4346 60.48ZM79.8586 47.472C79.8586 48.944 80.1466 50.256 80.7226 51.408C81.2986 52.528 82.0826 53.408 83.0746 54.048C84.0666 54.688 85.1866 55.008 86.4346 55.008C87.6506 55.008 88.7546 54.688 89.7466 54.048C90.7386 53.376 91.5226 52.48 92.0986 51.36C92.7066 50.208 93.0106 48.896 93.0106 47.424C93.0106 45.984 92.7066 44.688 92.0986 43.536C91.5226 42.384 90.7386 41.488 89.7466 40.848C88.7546 40.208 87.6506 39.888 86.4346 39.888C85.1866 39.888 84.0666 40.224 83.0746 40.896C82.0826 41.536 81.2986 42.432 80.7226 43.584C80.1466 44.704 79.8586 46 79.8586 47.472ZM124.723 60.48C122.579 60.48 120.531 60.128 118.579 59.424C116.627 58.72 114.947 57.68 113.539 56.304L115.843 52.128C117.347 53.344 118.819 54.24 120.259 54.816C121.731 55.392 123.139 55.68 124.483 55.68C125.731 55.68 126.723 55.456 127.459 55.008C128.227 54.56 128.611 53.888 128.611 52.992C128.611 52.384 128.403 51.92 127.987 51.6C127.571 51.248 126.963 50.944 126.163 50.688C125.395 50.432 124.451 50.144 123.331 49.824C121.475 49.216 119.923 48.624 118.675 48.048C117.427 47.472 116.483 46.752 115.843 45.888C115.235 44.992 114.931 43.856 114.931 42.48C114.931 40.816 115.347 39.392 116.179 38.208C117.043 36.992 118.227 36.048 119.731 35.376C121.267 34.704 123.059 34.368 125.107 34.368C126.899 34.368 128.595 34.656 130.195 35.232C131.795 35.776 133.251 36.672 134.563 37.92L131.971 42C130.691 41.008 129.475 40.288 128.323 39.84C127.171 39.36 126.003 39.12 124.819 39.12C124.147 39.12 123.507 39.2 122.899 39.36C122.323 39.52 121.843 39.792 121.459 40.176C121.107 40.528 120.931 41.04 120.931 41.712C120.931 42.32 121.091 42.8 121.411 43.152C121.763 43.472 122.275 43.76 122.947 44.016C123.651 44.272 124.499 44.56 125.491 44.88C127.507 45.456 129.203 46.048 130.579 46.656C131.987 47.264 133.043 48.016 133.747 48.912C134.451 49.776 134.803 50.976 134.803 52.512C134.803 55.008 133.891 56.96 132.067 58.368C130.243 59.776 127.795 60.48 124.723 60.48ZM137.45 52.56C137.45 50.928 137.898 49.504 138.794 48.288C139.722 47.04 141.002 46.08 142.634 45.408C144.266 44.736 146.138 44.4 148.25 44.4C149.306 44.4 150.378 44.48 151.466 44.64C152.554 44.8 153.498 45.056 154.298 45.408V44.064C154.298 42.464 153.818 41.232 152.858 40.368C151.93 39.504 150.538 39.072 148.682 39.072C147.306 39.072 145.994 39.312 144.746 39.792C143.498 40.272 142.186 40.976 140.81 41.904L138.746 37.68C140.41 36.592 142.106 35.776 143.834 35.232C145.594 34.688 147.434 34.416 149.354 34.416C152.938 34.416 155.722 35.312 157.706 37.104C159.722 38.896 160.73 41.456 160.73 44.784V52.8C160.73 53.472 160.842 53.952 161.066 54.24C161.322 54.528 161.722 54.704 162.266 54.768V60C161.69 60.096 161.162 60.176 160.682 60.24C160.234 60.304 159.85 60.336 159.53 60.336C158.25 60.336 157.274 60.048 156.602 59.472C155.962 58.896 155.562 58.192 155.402 57.36L155.258 56.064C154.17 57.472 152.81 58.56 151.178 59.328C149.546 60.096 147.882 60.48 146.186 60.48C144.522 60.48 143.018 60.144 141.674 59.472C140.362 58.768 139.322 57.824 138.554 56.64C137.818 55.424 137.45 54.064 137.45 52.56ZM153.098 53.856C153.45 53.472 153.738 53.088 153.962 52.704C154.186 52.32 154.298 51.968 154.298 51.648V49.104C153.53 48.784 152.698 48.544 151.802 48.384C150.906 48.192 150.058 48.096 149.258 48.096C147.594 48.096 146.218 48.464 145.13 49.2C144.074 49.904 143.546 50.848 143.546 52.032C143.546 52.672 143.722 53.28 144.074 53.856C144.426 54.432 144.938 54.896 145.61 55.248C146.282 55.6 147.082 55.776 148.01 55.776C148.97 55.776 149.914 55.6 150.842 55.248C151.77 54.864 152.522 54.4 153.098 53.856ZM181.578 58.704C181.034 58.928 180.378 59.184 179.61 59.472C178.842 59.76 178.01 59.984 177.114 60.144C176.25 60.336 175.37 60.432 174.474 60.432C173.29 60.432 172.202 60.224 171.21 59.808C170.218 59.392 169.418 58.736 168.81 57.84C168.234 56.912 167.946 55.712 167.946 54.24V39.792H164.634V34.848H167.946V26.688H174.378V34.848H179.658V39.792H174.378V52.08C174.41 52.944 174.65 53.568 175.098 53.952C175.546 54.336 176.106 54.528 176.778 54.528C177.45 54.528 178.106 54.416 178.746 54.192C179.386 53.968 179.898 53.776 180.282 53.616L181.578 58.704ZM196.311 60.48C194.295 60.48 192.471 60.144 190.839 59.472C189.207 58.768 187.815 57.824 186.663 56.64C185.511 55.424 184.615 54.048 183.975 52.512C183.367 50.944 183.063 49.296 183.063 47.568C183.063 45.168 183.591 42.976 184.647 40.992C185.735 39.008 187.271 37.424 189.255 36.24C191.271 35.024 193.639 34.416 196.359 34.416C199.111 34.416 201.463 35.024 203.415 36.24C205.367 37.424 206.855 39.008 207.879 40.992C208.935 42.944 209.463 45.056 209.463 47.328C209.463 47.712 209.447 48.112 209.415 48.528C209.383 48.912 209.351 49.232 209.319 49.488H189.879C190.007 50.768 190.375 51.888 190.983 52.848C191.623 53.808 192.423 54.544 193.383 55.056C194.375 55.536 195.431 55.776 196.551 55.776C197.831 55.776 199.031 55.472 200.151 54.864C201.303 54.224 202.087 53.392 202.503 52.368L208.023 53.904C207.415 55.184 206.535 56.32 205.383 57.312C204.263 58.304 202.935 59.088 201.399 59.664C199.863 60.208 198.167 60.48 196.311 60.48ZM189.735 45.408H202.887C202.759 44.128 202.391 43.024 201.783 42.096C201.207 41.136 200.439 40.4 199.479 39.888C198.519 39.344 197.447 39.072 196.263 39.072C195.111 39.072 194.055 39.344 193.095 39.888C192.167 40.4 191.399 41.136 190.791 42.096C190.215 43.024 189.863 44.128 189.735 45.408ZM213.333 24.96H219.765V51.936C219.765 53.088 219.957 53.872 220.341 54.288C220.725 54.672 221.253 54.864 221.925 54.864C222.437 54.864 222.965 54.8 223.509 54.672C224.053 54.544 224.533 54.384 224.949 54.192L225.813 59.088C224.949 59.504 223.941 59.824 222.789 60.048C221.637 60.272 220.597 60.384 219.669 60.384C217.653 60.384 216.085 59.856 214.965 58.8C213.877 57.712 213.333 56.176 213.333 54.192V24.96Z" fill="black"/>
</g>
<defs>
<linearGradient id="paint0_linear_4_4" x1="104.892" y1="9.48444" x2="107.309" y2="77.0493" gradientUnits="userSpaceOnUse">
<stop stop-color="#40916C"/>
<stop offset="1" stop-color="#74C69D"/>
</linearGradient>
<clipPath id="clip0_4_4">
<rect width="230" height="85" fill="white"/>
</clipPath>
<clipPath id="clip1_4_4">
<rect width="60" height="60" fill="white" transform="translate(107.44 1) rotate(45.0188)"/>
</clipPath>
</defs>
</svg>
